<svg version="1.2" baseProfile="tiny-ps" xmlns="http://www.w3.org/2000/svg" viewBox="0 0 29 30" width="29" height="30">
	<title>Footer</title>
	<style>
		tspan { white-space:pre }
		.shp0 { fill: #f3f3f3 } 
	</style>
	<g id="Footer">
		<g id="sharing">
			<g id="google">
				<path id="fa-google-plus" class="shp0" d="M13.35 13.16C13.65 12.78 14.01 12.41 14.44 12.05C14.87 11.7 15.29 11.31 15.71 10.88C16.13 10.46 16.49 9.9 16.79 9.21C17.09 8.52 17.24 7.74 17.24 6.88C17.24 5.79 17.01 4.83 16.55 3.99C16.08 3.15 15.4 2.35 14.49 1.6L16.89 1.6L19.42 0.01L11.76 0.01C10.39 0.01 9.06 0.2 7.77 0.59C6.49 0.97 5.37 1.56 4.43 2.35C3.66 3 3.05 3.79 2.61 4.71C2.17 5.64 1.95 6.59 1.95 7.58C1.95 9.36 2.57 10.82 3.82 11.98C5.06 13.14 6.58 13.72 8.39 13.72C8.66 13.72 9.07 13.7 9.64 13.65C9.38 14.24 9.25 14.75 9.25 15.18C9.25 15.67 9.34 16.11 9.53 16.5C9.72 16.88 10.01 17.32 10.41 17.83C7.07 18.04 4.6 18.65 3 19.63C2.1 20.18 1.37 20.87 0.83 21.7C0.28 22.53 0.01 23.43 0.01 24.4C0.01 25.26 0.24 26.04 0.69 26.76C1.39 27.92 2.43 28.74 3.83 29.24C5.23 29.74 6.74 29.99 8.35 29.99C10.3 29.99 12.12 29.64 13.81 28.95C15.51 28.26 16.8 27.18 17.68 25.72C18.27 24.72 18.56 23.68 18.56 22.6C18.56 21.67 18.37 20.81 17.98 20.04C17.58 19.28 17.11 18.65 16.56 18.17C16.01 17.69 15.46 17.25 14.91 16.85C14.35 16.44 13.88 16.04 13.49 15.62C13.09 15.21 12.9 14.78 12.9 14.35C12.9 13.94 13.05 13.55 13.35 13.16ZM8.45 12.15C7.91 11.84 7.45 11.44 7.08 10.95C6.71 10.45 6.39 9.9 6.12 9.28C5.86 8.66 5.67 8.04 5.55 7.42C5.43 6.81 5.36 6.22 5.36 5.67C5.36 4.46 5.65 3.49 6.23 2.79C6.53 2.39 6.93 2.07 7.43 1.84C7.92 1.61 8.43 1.49 8.94 1.49C9.72 1.49 10.44 1.73 11.08 2.23C11.73 2.72 12.25 3.34 12.63 4.09C13.02 4.84 13.31 5.62 13.52 6.42C13.73 7.23 13.83 7.98 13.83 8.68C13.83 9.9 13.51 10.86 12.86 11.54C12.54 11.87 12.14 12.13 11.65 12.32C11.16 12.52 10.69 12.62 10.22 12.62C9.59 12.62 9 12.47 8.45 12.15ZM7.92 28.09C7.16 27.91 6.43 27.65 5.74 27.3C5.05 26.94 4.49 26.44 4.06 25.8C3.63 25.16 3.42 24.42 3.42 23.58C3.42 22.87 3.59 22.23 3.92 21.67C4.25 21.12 4.66 20.67 5.17 20.33C5.68 20 6.27 19.72 6.95 19.5C7.63 19.29 8.28 19.14 8.92 19.05C9.56 18.97 10.2 18.93 10.85 18.93C11.24 18.93 11.53 18.94 11.73 18.96C11.76 18.99 11.98 19.14 12.39 19.43C12.8 19.72 13.06 19.9 13.16 19.97C13.25 20.04 13.48 20.22 13.82 20.49C14.17 20.77 14.41 20.98 14.53 21.12C14.65 21.25 14.83 21.46 15.07 21.75C15.31 22.03 15.47 22.28 15.57 22.49C15.66 22.71 15.75 22.96 15.83 23.25C15.92 23.54 15.96 23.83 15.96 24.13C15.96 24.88 15.79 25.53 15.46 26.1C15.12 26.66 14.67 27.1 14.12 27.41C13.56 27.73 12.96 27.96 12.3 28.12C11.65 28.27 10.97 28.35 10.26 28.35C9.46 28.35 8.69 28.26 7.92 28.09ZM25.11 8.66L23.18 8.66L23.18 12.57L19.3 12.57L19.3 14.51L23.18 14.51L23.18 18.46L25.11 18.46L25.11 14.51L29.01 14.51L29.01 12.57L25.11 12.57L25.11 8.66Z" />
			</g>
		</g>
	</g>
</svg>