<svg version="1.2" baseProfile="tiny-ps" xmlns="http://www.w3.org/2000/svg" viewBox="0 0 23 30" width="23" height="30">
	<title>Footer</title>
	<style>
		tspan { white-space:pre }
		.shp0 { fill: #f3f3f3 } 
	</style>
	<g id="Footer">
		<g id="sharing">
			<g id="pin">
				<path id="fa-pinterest-p" class="shp0" d="M0.2 12.69C0.33 13.34 0.52 13.99 0.78 14.63C1.04 15.27 1.4 15.84 1.88 16.33C2.35 16.83 2.89 17.16 3.5 17.34C3.68 17.38 3.79 17.4 3.81 17.4C4.07 17.4 4.29 17.13 4.47 16.59C4.65 16.05 4.74 15.61 4.74 15.27C4.74 15.16 4.67 14.98 4.52 14.72C4.37 14.46 4.21 14.19 4.03 13.9C3.86 13.61 3.7 13.22 3.55 12.73C3.4 12.24 3.32 11.73 3.32 11.2C3.32 8.81 4.13 6.84 5.73 5.28C7.34 3.73 9.34 2.95 11.73 2.95C13.84 2.95 15.55 3.53 16.86 4.69C18.18 5.85 18.83 7.46 18.83 9.54C18.83 10.11 18.79 10.7 18.72 11.33C18.64 11.96 18.52 12.63 18.36 13.33C18.19 14.04 17.97 14.7 17.67 15.32C17.38 15.95 17.04 16.52 16.67 17.04C16.29 17.55 15.82 17.96 15.26 18.26C14.69 18.56 14.08 18.71 13.42 18.71C12.66 18.71 12 18.46 11.46 17.96C10.93 17.47 10.66 16.84 10.66 16.08C10.66 15.34 10.92 14.21 11.45 12.71C11.97 11.21 12.24 10.06 12.24 9.27C12.24 8.53 12.03 7.91 11.63 7.42C11.22 6.94 10.65 6.69 9.92 6.69C8.96 6.69 8.17 7.13 7.55 8.01C6.92 8.89 6.61 9.82 6.61 10.82C6.61 12.07 6.8 13.08 7.19 13.87C7.1 14.23 6.79 15.44 6.25 17.52C5.71 19.6 5.32 21.33 5.06 22.7C4.8 24.08 4.67 25.32 4.67 26.42C4.67 26.79 4.76 27.92 4.94 29.81L5.1 29.99L5.35 29.9C5.8 29.3 6.17 28.78 6.47 28.34C6.77 27.9 7.04 27.44 7.3 26.94C7.55 26.45 7.74 26.08 7.87 25.82C8 25.56 8.16 25.13 8.34 24.54C8.52 23.94 8.64 23.52 8.71 23.26C8.77 23 8.91 22.43 9.13 21.55C9.34 20.67 9.51 19.99 9.63 19.52C9.98 20.19 10.55 20.72 11.36 21.11C12.16 21.49 12.97 21.68 13.78 21.68C15.02 21.68 16.15 21.45 17.18 20.99C18.21 20.53 19.08 19.91 19.78 19.13C20.49 18.36 21.09 17.46 21.58 16.44C22.07 15.42 22.43 14.36 22.66 13.25C22.89 12.15 23 11.02 23 9.87C23 7.94 22.49 6.22 21.47 4.7C20.45 3.17 19.13 2.01 17.5 1.21C15.87 0.41 14.11 0.01 12.22 0.01C10.99 0.01 9.78 0.17 8.59 0.48C7.4 0.79 6.3 1.26 5.26 1.88C4.23 2.51 3.32 3.25 2.53 4.1C1.74 4.95 1.12 5.95 0.67 7.1C0.22 8.25 0 9.47 0 10.77C0 11.39 0.07 12.03 0.2 12.69Z" />
			</g>
		</g>
	</g>
</svg>