<svg version="1.2" baseProfile="tiny-ps" xmlns="http://www.w3.org/2000/svg" viewBox="0 0 20 30" width="20" height="30">
	<title>Footer</title>
	<style>
		tspan { white-space:pre }
		.shp0 { fill: #ffffff } 
	</style>
	<g id="Footer">
		<g id="address">
			<path id="fa-map-marker" class="shp0" d="M10 15C8.62 15 7.44 14.51 6.46 13.53C5.49 12.56 5 11.38 5 10C5 8.62 5.49 7.44 6.46 6.46C7.44 5.49 8.62 5 10 5C11.38 5 12.55 5.49 13.53 6.46C14.51 7.44 14.99 8.62 14.99 10C14.99 11.38 14.51 12.56 13.53 13.53C12.55 14.51 11.38 15 10 15ZM17.06 2.93C15.11 0.98 12.76 0 10 0C7.24 0 4.88 0.98 2.93 2.93C0.98 4.88 0 7.24 0 10C0 11.42 0.21 12.58 0.64 13.49L7.77 28.61C7.97 29.04 8.27 29.37 8.68 29.62C9.09 29.87 9.53 29.99 10 29.99C10.46 29.99 10.9 29.87 11.31 29.62C11.72 29.37 12.03 29.04 12.24 28.61L19.35 13.49C19.78 12.58 19.99 11.42 19.99 10C19.99 7.24 19.02 4.88 17.06 2.93Z" />
		</g>
	</g>
</svg>