<svg version="1.2" baseProfile="tiny-ps" xmlns="http://www.w3.org/2000/svg" viewBox="0 0 30 30" width="30" height="30">
	<title>Footer</title>
	<style>
		tspan { white-space:pre }
		.shp0 { fill: #ffffff } 
	</style>
	<g id="Footer">
		<g id="phone">
			<path id="fa-phone" class="shp0" d="M29.93 23.25C29.85 22.99 29.31 22.61 28.31 22.12C28.04 21.96 27.66 21.75 27.16 21.48C26.66 21.21 26.21 20.96 25.81 20.73C25.4 20.51 25.02 20.29 24.67 20.07C24.61 20.03 24.43 19.91 24.14 19.7C23.84 19.49 23.59 19.34 23.38 19.24C23.17 19.14 22.97 19.09 22.77 19.09C22.49 19.09 22.13 19.29 21.71 19.7C21.28 20.1 20.89 20.54 20.54 21.02C20.18 21.5 19.8 21.94 19.41 22.34C19.01 22.75 18.68 22.95 18.43 22.95C18.3 22.95 18.14 22.91 17.95 22.84C17.76 22.77 17.61 22.71 17.51 22.66C17.41 22.61 17.24 22.51 17 22.36C16.76 22.21 16.62 22.13 16.6 22.12C14.65 21.04 12.98 19.8 11.59 18.41C10.2 17.02 8.96 15.35 7.88 13.4C7.87 13.38 7.79 13.24 7.64 13C7.49 12.76 7.39 12.59 7.34 12.49C7.29 12.39 7.23 12.24 7.16 12.05C7.09 11.86 7.05 11.7 7.05 11.57C7.05 11.32 7.25 10.99 7.66 10.59C8.06 10.2 8.5 9.82 8.98 9.46C9.45 9.11 9.9 8.72 10.3 8.29C10.7 7.87 10.91 7.51 10.91 7.23C10.91 7.03 10.86 6.83 10.76 6.62C10.66 6.41 10.51 6.16 10.3 5.86C10.09 5.56 9.97 5.39 9.93 5.33C9.71 4.98 9.49 4.6 9.27 4.19C9.04 3.79 8.79 3.34 8.52 2.84C8.25 2.34 8.04 1.96 7.88 1.69C7.38 0.69 7.01 0.15 6.75 0.07C6.65 0.03 6.5 0 6.31 0C5.92 0 5.42 0.08 4.8 0.22C4.19 0.36 3.7 0.51 3.34 0.67C2.63 0.96 1.88 1.83 1.09 3.26C0.36 4.6 0 5.92 0 7.23C0 7.61 0.02 7.98 0.07 8.35C0.12 8.71 0.21 9.12 0.34 9.57C0.47 10.02 0.57 10.36 0.65 10.58C0.73 10.8 0.87 11.2 1.09 11.76C1.3 12.33 1.43 12.68 1.47 12.81C1.97 14.2 2.56 15.44 3.24 16.54C4.36 18.35 5.89 20.23 7.83 22.17C9.77 24.11 11.65 25.64 13.46 26.76C14.56 27.44 15.8 28.03 17.19 28.53C17.32 28.57 17.67 28.7 18.24 28.91C18.8 29.13 19.2 29.27 19.42 29.35C19.64 29.43 19.98 29.53 20.43 29.66C20.88 29.79 21.29 29.88 21.65 29.93C22.02 29.98 22.39 30 22.77 30C24.08 30 25.4 29.64 26.74 28.91C28.17 28.12 29.04 27.37 29.33 26.66C29.49 26.3 29.64 25.81 29.78 25.2C29.92 24.58 29.99 24.08 29.99 23.69C29.99 23.5 29.97 23.35 29.93 23.25L29.93 23.25Z" />
		</g>
	</g>
</svg>