<svg version="1.2" baseProfile="tiny-ps" xmlns="http://www.w3.org/2000/svg" viewBox="0 0 30 30" width="30" height="30">
	<title>Footer</title>
	<style>
		tspan { white-space:pre }
		.shp0 { fill: #ffffff } 
	</style>
	<g id="Footer">
		<g id="sharing">
			<path id="fa-share-alt" class="shp0" d="M19.49 19.18L12.46 15.66C12.48 15.37 12.5 15.15 12.5 15C12.5 14.84 12.48 14.62 12.46 14.33L19.49 10.82C20.68 11.94 22.1 12.5 23.74 12.5C25.47 12.5 26.95 11.89 28.16 10.67C29.38 9.46 29.99 7.98 29.99 6.25C29.99 4.52 29.38 3.05 28.16 1.83C26.95 0.61 25.47 0 23.74 0C22.01 0 20.54 0.61 19.32 1.83C18.1 3.05 17.49 4.52 17.49 6.25C17.49 6.41 17.51 6.63 17.53 6.91L10.5 10.43C9.31 9.31 7.89 8.75 6.25 8.75C4.52 8.75 3.04 9.36 1.83 10.57C0.61 11.79 0 13.27 0 15C0 16.73 0.61 18.2 1.83 19.42C3.04 20.64 4.52 21.25 6.25 21.25C7.89 21.25 9.31 20.69 10.5 19.57L17.53 23.08C17.51 23.37 17.49 23.59 17.49 23.74C17.49 25.48 18.1 26.95 19.32 28.17C20.54 29.38 22.01 29.99 23.74 29.99C25.47 29.99 26.95 29.38 28.16 28.17C29.38 26.95 29.99 25.48 29.99 23.74C29.99 22.01 29.38 20.54 28.16 19.32C26.95 18.11 25.47 17.5 23.74 17.5C22.1 17.5 20.68 18.06 19.49 19.18L19.49 19.18Z" />
		</g>
	</g>
</svg>